<svg width="742" height="724" viewBox="0 0 742 724" fill="none" xmlns="http://www.w3.org/2000/svg">
<path d="M60.0158 222C20.143 153.2 43.4022 13.3333 60.0158 -48L730.649 -149L794.307 122.5L756.309 723.5C678.669 724.5 505.525 717 434.07 679C344.751 631.5 385.216 555 311.195 515C237.173 475 279.612 369.5 253.952 329.5C228.291 289.5 109.857 308 60.0158 222Z" fill="#FFF1DA"/>
<path d="M575.59 297.694C574.313 297.948 573.078 298.457 571.961 299.189C569.051 301.047 567.413 303.787 568.303 305.307C569.193 306.827 572.274 306.552 575.184 304.694C576.317 303.99 577.313 303.074 578.112 302.004C578.483 301.486 578.53 300.826 578.234 300.322L577.078 298.347C576.784 297.841 576.2 297.586 575.59 297.694Z" fill="#D5D6DB"/>
<path d="M567.236 270.991C566.31 271.175 565.415 271.544 564.605 272.075C562.495 273.422 561.307 275.408 561.952 276.51C562.596 277.611 564.831 277.412 566.941 276.065C567.762 275.554 568.485 274.89 569.064 274.113C569.332 273.738 569.367 273.26 569.152 272.895L568.315 271.465C568.102 271.098 567.679 270.912 567.236 270.991Z" fill="#D5D6DB"/>
<path d="M555.132 271.68C554.924 271.649 554.704 271.699 554.516 271.819L549.561 274.983C549.146 275.247 548.994 275.778 549.222 276.168C549.274 276.258 549.344 276.335 549.428 276.396L562.213 285.727L578.738 275.175L555.132 271.68Z" fill="#029BC5"/>
<path d="M608.504 272.262L563.52 300.611L536.69 310.867L522.912 313.241L521.296 310.506L596.308 264.213C598.544 262.827 601.058 262.016 603.598 261.862C604.71 261.8 605.813 261.876 606.881 262.088C607.828 262.268 608.73 262.584 609.562 263.026C610.491 263.526 612.231 263.64 612.825 264.592C612.827 264.591 614.298 268.923 608.504 272.262V272.262Z" fill="#E1E6E9"/>
<path d="M563.998 296.671L545.199 328.777C544.966 329.229 545.13 329.75 545.566 329.94C545.834 330.057 546.155 330.026 546.421 329.857L551.373 326.71C552.326 326.104 553.161 325.322 553.827 324.412L590.841 278.843L563.998 296.671Z" fill="#029BC5"/>
<path d="M513.767 293.847C513.431 293.718 513.038 293.765 512.712 293.973L508.619 296.585C508.061 296.941 507.858 297.655 508.165 298.18C508.223 298.279 508.298 298.368 508.386 298.442L520.436 308.557L532.5 301.019L513.767 293.847Z" fill="#029BC5"/>
<path d="M524.424 310.444L518.418 319.367C518.329 319.495 518.357 319.66 518.478 319.736C518.566 319.791 518.683 319.786 518.777 319.723L522.603 317.295C522.632 317.276 522.659 317.252 522.681 317.224L531.516 305.947L524.424 310.444Z" fill="#029BC5"/>
<path d="M606.139 262.456C605.039 262.237 603.903 262.159 602.758 262.224C601.693 263.803 601.038 265.595 600.859 267.423C600.854 267.791 601.15 268.066 601.521 268.037C601.637 268.028 601.75 267.99 601.852 267.927L608.901 263.429C608.044 262.97 607.114 262.643 606.139 262.456Z" fill="#029BC5"/>
<path d="M590.722 270.643L595.326 267.731L599.966 275.592L595.363 278.503L590.722 270.643Z" fill="#D5D6DB"/>
<path d="M587.863 273.59C587.308 273.942 587.105 274.648 587.41 275.167L587.904 276.008C588.227 276.515 588.931 276.626 589.475 276.257C589.993 275.905 590.184 275.239 589.912 274.734L589.418 273.893C589.114 273.374 588.418 273.238 587.863 273.59V273.59Z" fill="#3A556A"/>
<path d="M583.724 276.16C583.169 276.512 582.966 277.218 583.271 277.737L583.765 278.578C584.088 279.085 584.792 279.197 585.336 278.827C585.854 278.475 586.045 277.81 585.773 277.304L585.279 276.463C584.974 275.945 584.278 275.809 583.724 276.16V276.16Z" fill="#3A556A"/>
<path d="M579.583 278.732C579.029 279.084 578.827 279.789 579.132 280.308L579.625 281.149C579.949 281.656 580.652 281.767 581.197 281.398C581.715 281.046 581.906 280.38 581.634 279.875L581.14 279.034C580.835 278.515 580.138 278.38 579.583 278.732V278.732Z" fill="#3A556A"/>
<path d="M575.444 281.302C574.89 281.654 574.688 282.36 574.992 282.879L575.486 283.72C575.81 284.226 576.513 284.338 577.057 283.968C577.575 283.616 577.767 282.951 577.494 282.445L577.001 281.604C576.695 281.085 575.999 280.95 575.444 281.302V281.302Z" fill="#3A556A"/>
<path d="M571.305 283.873C570.751 284.225 570.549 284.931 570.853 285.45L571.348 286.291C571.652 286.81 572.349 286.945 572.903 286.593C573.458 286.242 573.66 285.536 573.356 285.017L572.861 284.176C572.558 283.657 571.861 283.521 571.306 283.872C571.306 283.872 571.306 283.872 571.305 283.873Z" fill="#3A556A"/>
<path d="M567.166 286.443C566.612 286.796 566.409 287.502 566.714 288.02L567.208 288.862C567.513 289.38 568.21 289.516 568.764 289.164C569.319 288.812 569.521 288.107 569.217 287.588L568.722 286.747C568.418 286.227 567.722 286.091 567.167 286.443C567.167 286.443 567.166 286.443 567.166 286.443Z" fill="#3A556A"/>
<path d="M563.027 289.014C562.472 289.366 562.27 290.072 562.575 290.591L563.069 291.432C563.374 291.951 564.071 292.085 564.625 291.732C565.178 291.381 565.38 290.677 565.077 290.159L564.583 289.317C564.278 288.798 563.582 288.662 563.027 289.014Z" fill="#3A556A"/>
<path d="M558.887 291.584C558.333 291.937 558.131 292.643 558.435 293.162L558.93 294.003C559.235 294.521 559.932 294.655 560.486 294.303C561.039 293.951 561.241 293.247 560.937 292.729L560.443 291.888C560.139 291.369 559.442 291.233 558.887 291.584Z" fill="#3A556A"/>
<path d="M554.748 294.155C554.193 294.508 553.991 295.213 554.296 295.732L554.79 296.573C555.096 297.092 555.792 297.226 556.346 296.873C556.899 296.522 557.101 295.818 556.798 295.3L556.304 294.458C555.999 293.939 555.303 293.804 554.748 294.155Z" fill="#3A556A"/>
<path d="M550.607 296.726C550.053 297.078 549.85 297.784 550.155 298.302L550.156 298.303L550.65 299.145C550.955 299.663 551.652 299.797 552.206 299.445C552.759 299.093 552.961 298.389 552.658 297.871L552.163 297.03C551.859 296.511 551.162 296.375 550.607 296.726Z" fill="#3A556A"/>
<path d="M546.469 299.296C545.915 299.648 545.712 300.353 546.017 300.872L546.017 300.873L546.512 301.714C546.817 302.233 547.514 302.367 548.068 302.015C548.621 301.663 548.823 300.959 548.52 300.441L548.025 299.599C547.721 299.081 547.024 298.945 546.469 299.296Z" fill="#3A556A"/>
<path d="M91.5896 250.694C90.3126 250.948 89.0775 251.457 87.961 252.189C85.0507 254.047 83.4127 256.787 84.3027 258.307C85.1927 259.827 88.2734 259.552 91.1838 257.694C92.3166 256.99 93.3132 256.074 94.1124 255.004C94.4825 254.486 94.5301 253.826 94.2339 253.322L93.0777 251.347C92.7834 250.841 92.1995 250.586 91.5896 250.694Z" fill="#D5D6DB"/>
<path d="M83.2361 223.991C82.3101 224.175 81.4144 224.544 80.6048 225.075C78.495 226.422 77.3065 228.409 77.9513 229.51C78.5962 230.611 80.8309 230.412 82.9405 229.065C83.7618 228.554 84.4844 227.89 85.064 227.113C85.3321 226.738 85.3664 226.26 85.1517 225.895L84.3146 224.465C84.1015 224.098 83.6783 223.912 83.2361 223.991Z" fill="#D5D6DB"/>
<path d="M71.1323 224.68C70.9238 224.649 70.7042 224.699 70.5163 224.819L65.5605 227.984C65.146 228.247 64.9942 228.778 65.222 229.168C65.2741 229.258 65.3439 229.335 65.4275 229.396L78.2128 238.727L94.7379 228.175L71.1323 224.68Z" fill="#029BC5"/>
<path d="M124.504 225.262L79.5203 253.611L52.6898 263.867L38.9114 266.241L37.2958 263.506L112.308 217.213C114.544 215.827 117.058 215.016 119.597 214.862C120.71 214.8 121.813 214.876 122.881 215.088C123.827 215.268 124.73 215.584 125.562 216.026C126.491 216.526 128.231 216.64 128.825 217.592C128.827 217.591 130.298 221.923 124.504 225.262V225.262Z" fill="#E1E6E9"/>
<path d="M79.9979 249.671L61.1988 281.777C60.9657 282.229 61.1304 282.75 61.5663 282.94C61.8337 283.057 62.1553 283.026 62.4208 282.857L67.3732 279.71C68.3257 279.104 69.1609 278.322 69.8273 277.412L106.841 231.843L79.9979 249.671Z" fill="#029BC5"/>
<path d="M29.7667 246.847C29.431 246.718 29.0381 246.765 28.7121 246.973L24.6186 249.585C24.0609 249.941 23.8577 250.655 24.1646 251.18C24.2231 251.28 24.2977 251.368 24.386 251.442L36.4358 261.558L48.4994 254.019L29.7667 246.847Z" fill="#029BC5"/>
<path d="M40.4244 263.444L34.4176 272.367C34.3295 272.495 34.3567 272.66 34.4784 272.736C34.5662 272.791 34.6834 272.786 34.7767 272.723L38.6026 270.295C38.6323 270.276 38.659 270.252 38.6807 270.224L47.5163 258.947L40.4244 263.444Z" fill="#029BC5"/>
<path d="M122.139 215.456C121.039 215.237 119.903 215.159 118.758 215.224C117.693 216.803 117.038 218.595 116.859 220.423C116.854 220.791 117.15 221.066 117.521 221.038C117.637 221.029 117.75 220.99 117.852 220.927L124.901 216.429C124.044 215.97 123.114 215.643 122.139 215.456Z" fill="#029BC5"/>
<path d="M106.722 223.643L111.326 220.731L115.966 228.592L111.363 231.503L106.722 223.643Z" fill="#D5D6DB"/>
<path d="M103.863 226.59C103.308 226.942 103.105 227.648 103.41 228.167L103.904 229.008C104.227 229.515 104.931 229.626 105.475 229.257C105.993 228.905 106.184 228.239 105.912 227.734L105.418 226.893C105.114 226.374 104.417 226.238 103.863 226.59V226.59Z" fill="#3A556A"/>
<path d="M99.7234 229.16C99.1687 229.512 98.9658 230.218 99.2707 230.738L99.7646 231.578C100.088 232.085 100.791 232.197 101.336 231.827C101.854 231.475 102.045 230.81 101.773 230.304L101.279 229.463C100.974 228.945 100.278 228.809 99.7234 229.16V229.16Z" fill="#3A556A"/>
<path d="M95.5828 231.732C95.0288 232.084 94.8267 232.789 95.1313 233.308L95.6252 234.149C95.9486 234.656 96.6519 234.767 97.1963 234.398C97.7144 234.046 97.9055 233.38 97.6334 232.875L97.1395 232.034C96.8346 231.515 96.1378 231.38 95.5828 231.732V231.732Z" fill="#3A556A"/>
<path d="M91.4437 234.302C90.8896 234.655 90.6875 235.36 90.9921 235.879L91.4861 236.72C91.8094 237.226 92.5127 237.338 93.0571 236.968C93.5752 236.616 93.7664 235.951 93.4942 235.445L93.0003 234.604C92.6952 234.085 91.9984 233.95 91.4437 234.302V234.302Z" fill="#3A556A"/>
<path d="M87.3049 236.873C86.7505 237.225 86.5483 237.931 86.8531 238.45L87.3473 239.291C87.6519 239.81 88.3484 239.945 88.903 239.593C89.4575 239.242 89.6601 238.536 89.3555 238.017L88.8613 237.176C88.5573 236.657 87.861 236.521 87.3061 236.872C87.3056 236.872 87.3053 236.873 87.3049 236.873Z" fill="#3A556A"/>
<path d="M83.1657 239.443C82.6113 239.796 82.4091 240.502 82.7139 241.02L83.2081 241.862C83.5128 242.38 84.2093 242.516 84.7638 242.164C85.3184 241.812 85.521 241.107 85.2163 240.588L84.7221 239.747C84.4181 239.228 83.7218 239.091 83.1669 239.443C83.1664 239.443 83.166 239.443 83.1657 239.443Z" fill="#3A556A"/>
<path d="M79.0263 242.014C78.4719 242.366 78.2697 243.072 78.5745 243.591L79.0687 244.432C79.374 244.951 80.0709 245.085 80.6248 244.732C81.1778 244.381 81.3799 243.677 81.0766 243.159L80.5824 242.317C80.2779 241.798 79.5813 241.662 79.0263 242.014Z" fill="#3A556A"/>
<path d="M74.8869 244.584C74.3325 244.937 74.1303 245.643 74.4351 246.162L74.9293 247.003C75.2346 247.521 75.9315 247.655 76.4854 247.303C77.0384 246.951 77.2405 246.247 76.9372 245.729L76.443 244.888C76.1384 244.369 75.4419 244.233 74.8869 244.584Z" fill="#3A556A"/>
<path d="M70.7477 247.155C70.1933 247.508 69.9911 248.213 70.2959 248.732L70.7901 249.573C71.0955 250.092 71.7923 250.226 72.3462 249.873C72.8992 249.522 73.1013 248.818 72.798 248.3L72.3038 247.458C71.9991 246.94 71.3025 246.804 70.7477 247.155Z" fill="#3A556A"/>
<path d="M66.6072 249.726C66.0527 250.078 65.8501 250.784 66.1548 251.302L66.1554 251.303L66.6496 252.145C66.955 252.663 67.6518 252.797 68.2057 252.445C68.7587 252.093 68.9608 251.389 68.6575 250.871L68.1633 250.03C67.8588 249.511 67.1623 249.375 66.6072 249.726Z" fill="#3A556A"/>
<path d="M62.4691 252.296C61.9145 252.648 61.7119 253.353 62.0166 253.872L62.0172 253.873L62.5114 254.714C62.8168 255.233 63.5136 255.367 64.0676 255.015C64.6206 254.663 64.8227 253.959 64.5194 253.441L64.0252 252.599C63.7204 252.081 63.0239 251.945 62.4691 252.296Z" fill="#3A556A"/>
</svg>
